<svg xmlns="http://www.w3.org/2000/svg" version="1.1" xmlns:xlink="http://www.w3.org/1999/xlink" width="512" height="512" x="0" y="0" viewBox="0 0 512 512" style="enable-background:new 0 0 512 512" xml:space="preserve" class=""><g><path d="M97.378 344.789H16.83c-6.627 0-12 5.373-12 12v138.005c0 6.627 5.373 12 12 12h80.549c6.627 0 12-5.373 12-12V356.789c-.001-6.628-5.373-12-12.001-12zm-12 138.005H28.83V368.789h56.549v114.005zm144.874-267.122h-80.549c-6.627 0-12 5.373-12 12v263.987c0 6.627 5.373 12 12 12h80.549c6.627 0 12-5.373 12-12V227.672c0-6.628-5.372-12-12-12zm-12 263.987h-56.549V239.672h56.549zm144.874-220.07h-80.548c-6.627 0-12 5.373-12 12v216.934c0 6.627 5.373 12 12 12h80.548c6.627 0 12-5.373 12-12V271.589c0-6.628-5.373-12-12-12zm-12 216.934h-56.548V283.589h56.548zM496 137.259h-80.549c-6.627 0-12 5.373-12 12v336.128c0 6.627 5.373 12 12 12H496c6.627 0 12-5.373 12-12V149.259c0-6.628-5.373-12-12-12zm-12 336.128h-56.549V161.259H484zM49.221 285.85c24.936 0 45.223-20.286 45.223-45.222 0-7.05-1.624-13.728-4.514-19.682l75.158-65.78a44.951 44.951 0 0 0 24.89 7.492c15.384 0 28.99-7.727 37.163-19.498l50.606 17.717a45.457 45.457 0 0 0-.116 3.078c0 24.935 20.286 45.221 45.221 45.221 24.936 0 45.223-20.286 45.223-45.221a44.94 44.94 0 0 0-4.287-19.193l66.597-56.9a44.962 44.962 0 0 0 25.341 7.787c24.936 0 45.223-20.287 45.223-45.223 0-24.935-20.287-45.221-45.223-45.221s-45.222 20.286-45.222 45.221a44.933 44.933 0 0 0 4.287 19.192l-66.597 56.901a44.968 44.968 0 0 0-25.342-7.787c-15.383 0-28.989 7.727-37.162 19.498l-50.606-17.717c.069-1.018.116-2.043.116-3.078 0-24.936-20.287-45.222-45.223-45.222s-45.222 20.286-45.222 45.222a44.951 44.951 0 0 0 4.514 19.682l-75.159 65.78a44.95 44.95 0 0 0-24.889-7.491C24.286 195.407 4 215.693 4 240.628s20.286 45.222 45.221 45.222zM455.725 29.206c11.702 0 21.223 9.52 21.223 21.221 0 11.702-9.521 21.223-21.223 21.223s-21.222-9.521-21.222-21.223c0-11.701 9.52-21.221 21.222-21.221zM322.851 142.733c11.703 0 21.223 9.521 21.223 21.223 0 11.701-9.521 21.221-21.223 21.221-11.701 0-21.221-9.52-21.221-21.221 0-11.702 9.52-21.223 21.221-21.223zM189.978 96.214c11.702 0 21.223 9.52 21.223 21.222 0 11.703-9.521 21.223-21.223 21.223s-21.222-9.521-21.222-21.223 9.52-21.222 21.222-21.222zM49.221 219.407c11.703 0 21.223 9.52 21.223 21.221 0 11.702-9.521 21.222-21.223 21.222C37.52 261.85 28 252.33 28 240.628c0-11.701 9.52-21.221 21.221-21.221z" fill="#b9a97d" opacity="1" data-original="#000000" class=""></path></g></svg>