<svg xmlns="http://www.w3.org/2000/svg" version="1.1" xmlns:xlink="http://www.w3.org/1999/xlink" width="512" height="512" x="0" y="0" viewBox="0 0 512 512" style="enable-background:new 0 0 512 512" xml:space="preserve" class=""><g><path d="M477.867 357.333h-19.2v-70.635c0-30.56-29.195-57.365-62.475-57.365H266.667v-64h29.867c18.837-.035 34.098-15.297 34.133-34.133V60.8c-.035-18.837-15.297-34.098-34.133-34.133h-81.067c-18.837.035-34.098 15.297-34.133 34.133v70.4c.035 18.837 15.297 34.098 34.133 34.133h29.867v64H115.808c-33.28 0-62.475 26.805-62.475 57.365v70.635h-19.2C15.297 357.369.035 372.63 0 391.467V451.2c.035 18.837 15.297 34.098 34.133 34.133h59.733c18.837-.035 34.098-15.297 34.133-34.133v-59.733c-.035-18.837-15.297-34.098-34.133-34.133h-19.2v-70.635c0-20.629 21.717-36.032 41.141-36.032h129.525v106.667h-19.2c-18.837.035-34.098 15.297-34.133 34.133V451.2c.035 18.837 15.297 34.098 34.133 34.133h59.733c18.837-.035 34.098-15.297 34.133-34.133v-59.733c-.035-18.837-15.297-34.098-34.133-34.133h-19.2V250.667H396.19c19.424 0 41.141 15.403 41.141 36.032v70.635h-19.2c-18.837.035-34.098 15.297-34.133 34.133V451.2c.035 18.837 15.297 34.098 34.133 34.133h59.733c18.837-.035 34.098-15.297 34.133-34.133v-59.733c-.032-18.837-15.294-34.098-34.13-34.134zm-384 21.334c7.069 0 12.8 5.731 12.8 12.8V451.2c0 7.069-5.731 12.8-12.8 12.8H34.133c-7.069 0-12.8-5.731-12.8-12.8v-59.733c0-7.069 5.731-12.8 12.8-12.8h59.734zm192 0c7.069 0 12.8 5.731 12.8 12.8V451.2c0 7.069-5.731 12.8-12.8 12.8h-59.733c-7.069 0-12.8-5.731-12.8-12.8v-59.733c0-7.069 5.731-12.8 12.8-12.8h59.733zM215.467 144c-7.069 0-12.8-5.731-12.8-12.8V60.8c0-7.069 5.731-12.8 12.8-12.8h81.067c7.069 0 12.8 5.731 12.8 12.8v70.4c0 7.069-5.731 12.8-12.8 12.8h-81.067zm275.2 307.2c0 7.069-5.731 12.8-12.8 12.8h-59.733c-7.069 0-12.8-5.731-12.8-12.8v-59.733c0-7.069 5.731-12.8 12.8-12.8h59.733c7.069 0 12.8 5.731 12.8 12.8V451.2z" fill="#ffffff" opacity="1" data-original="#000000" class=""></path></g></svg>