<svg xmlns="http://www.w3.org/2000/svg" version="1.1" xmlns:xlink="http://www.w3.org/1999/xlink" width="512" height="512" x="0" y="0" viewBox="0 0 512 512" style="enable-background:new 0 0 512 512" xml:space="preserve"><g><path d="M110.933 426.667H42.667c-4.71 0-8.533 3.823-8.533 8.533s3.823 8.533 8.533 8.533h68.267c4.71 0 8.533-3.823 8.533-8.533s-3.823-8.533-8.534-8.533zM196.267 136.533h119.467c4.719 0 8.533-3.823 8.533-8.533s-3.814-8.533-8.533-8.533H196.267c-4.71 0-8.533 3.823-8.533 8.533s3.822 8.533 8.533 8.533z" fill="#b9a97d" opacity="1" data-original="#000000"></path><path d="M76.8 324.267a8.536 8.536 0 0 0 8.533-8.533v-42.667h162.133v42.667a8.536 8.536 0 0 0 8.533 8.533 8.53 8.53 0 0 0 8.533-8.533v-42.667h162.133v42.667c0 4.71 3.814 8.533 8.533 8.533s8.533-3.823 8.533-8.533v-51.2a8.53 8.53 0 0 0-8.533-8.533H264.533v-59.733a8.53 8.53 0 0 0-8.533-8.533h-93.867c-14.114 0-25.6-11.486-25.6-25.6V42.667c0-14.114 11.486-25.6 25.6-25.6h187.733c14.114 0 25.6 11.486 25.6 25.6v119.467c0 14.114-11.486 25.6-25.6 25.6h-59.733c-4.719 0-8.533 3.823-8.533 8.533s3.814 8.533 8.533 8.533h59.733c23.526 0 42.667-19.14 42.667-42.667V42.667C392.533 19.14 373.393 0 349.867 0H162.133c-23.526 0-42.667 19.14-42.667 42.667v119.467c0 23.526 19.14 42.667 42.667 42.667h85.333V256H76.8a8.536 8.536 0 0 0-8.533 8.533v51.2c0 4.711 3.823 8.534 8.533 8.534z" fill="#b9a97d" opacity="1" data-original="#000000"></path><path d="M196.267 85.333h102.4c4.719 0 8.533-3.823 8.533-8.533s-3.814-8.533-8.533-8.533h-102.4c-4.71 0-8.533 3.823-8.533 8.533s3.822 8.533 8.533 8.533zM42.667 409.6H76.8c4.71 0 8.533-3.823 8.533-8.533s-3.823-8.533-8.533-8.533H42.667c-4.71 0-8.533 3.823-8.533 8.533s3.822 8.533 8.533 8.533z" fill="#b9a97d" opacity="1" data-original="#000000"></path><path d="M136.533 341.333H17.067C7.654 341.333 0 348.988 0 358.4v136.533C0 504.346 7.654 512 17.067 512h119.467c9.412 0 17.067-7.654 17.067-17.067V358.4c-.001-9.412-7.655-17.067-17.068-17.067zm-119.466 153.6V358.4h119.467l.009 136.533H17.067z" fill="#b9a97d" opacity="1" data-original="#000000"></path><path d="M110.933 460.8H42.667c-4.71 0-8.533 3.823-8.533 8.533s3.823 8.533 8.533 8.533h68.267c4.71 0 8.533-3.823 8.533-8.533s-3.823-8.533-8.534-8.533zM469.333 460.8h-68.267c-4.719 0-8.533 3.823-8.533 8.533s3.814 8.533 8.533 8.533h68.267c4.719 0 8.533-3.823 8.533-8.533s-3.814-8.533-8.533-8.533zM469.333 426.667h-68.267c-4.719 0-8.533 3.823-8.533 8.533s3.814 8.533 8.533 8.533h68.267c4.719 0 8.533-3.823 8.533-8.533s-3.814-8.533-8.533-8.533z" fill="#b9a97d" opacity="1" data-original="#000000"></path><path d="M494.933 341.333H375.467c-9.412 0-17.067 7.654-17.067 17.067v136.533c0 9.412 7.654 17.067 17.067 17.067h119.467c9.412 0 17.067-7.654 17.067-17.067V358.4c-.001-9.412-7.655-17.067-17.068-17.067zm-119.466 153.6V358.4h119.467l.009 136.533H375.467z" fill="#b9a97d" opacity="1" data-original="#000000"></path><path d="M401.067 409.6H435.2c4.719 0 8.533-3.823 8.533-8.533s-3.814-8.533-8.533-8.533h-34.133c-4.719 0-8.533 3.823-8.533 8.533s3.814 8.533 8.533 8.533zM290.133 426.667h-68.267c-4.71 0-8.533 3.823-8.533 8.533s3.823 8.533 8.533 8.533h68.267c4.719 0 8.533-3.823 8.533-8.533s-3.814-8.533-8.533-8.533zM290.133 460.8h-68.267c-4.71 0-8.533 3.823-8.533 8.533s3.823 8.533 8.533 8.533h68.267c4.719 0 8.533-3.823 8.533-8.533s-3.814-8.533-8.533-8.533z" fill="#b9a97d" opacity="1" data-original="#000000"></path><path d="M315.733 341.333H196.267c-9.412 0-17.067 7.654-17.067 17.067v136.533c0 9.412 7.654 17.067 17.067 17.067h119.467c9.412 0 17.067-7.654 17.067-17.067V358.4c-.001-9.412-7.655-17.067-17.068-17.067zm-119.466 153.6V358.4h119.467l.009 136.533H196.267z" fill="#b9a97d" opacity="1" data-original="#000000"></path><path d="M221.867 409.6H256c4.719 0 8.533-3.823 8.533-8.533s-3.814-8.533-8.533-8.533h-34.133c-4.71 0-8.533 3.823-8.533 8.533s3.822 8.533 8.533 8.533z" fill="#b9a97d" opacity="1" data-original="#000000"></path></g></svg>