<svg xmlns="http://www.w3.org/2000/svg" version="1.1" xmlns:xlink="http://www.w3.org/1999/xlink" width="512" height="512" x="0" y="0" viewBox="0 0 511 512" style="enable-background:new 0 0 512 512" xml:space="preserve"><g><path d="M363.816 191.52h-13.203v-44.262C350.613 66.058 284.551 0 203.352 0c-81.2 0-147.258 66.059-147.258 147.258v44.262H42.89C19.516 191.52.5 210.535.5 233.91v235.703C.5 492.984 19.516 512 42.89 512h320.926c23.371 0 42.387-19.016 42.387-42.387V233.91c0-23.375-19.016-42.39-42.387-42.39zM86.488 147.258c0-64.438 52.426-116.863 116.864-116.863 64.441 0 116.863 52.425 116.863 116.863v44.262H262.57v-45.41c0-32.02-26.05-58.067-58.07-58.067h-2.297c-32.02 0-58.07 26.047-58.07 58.066v45.41H86.488zm88.04 44.262v-45.41c0-15.258 12.413-27.673 27.675-27.673h2.297c15.262 0 27.676 12.415 27.676 27.672v45.41zm201.28 278.093c0 6.61-5.382 11.992-11.996 11.992H42.892c-6.614 0-11.996-5.382-11.996-11.992V233.91c0-6.613 5.382-11.992 11.996-11.992h320.925c6.614 0 11.993 5.379 11.993 11.992zm0 0" fill="#ffffff" opacity="1" data-original="#000000"></path><path d="M203.352 272.297c-31.09 0-56.383 25.293-56.383 56.383 0 25.824 17.457 47.632 41.187 54.285v33.058c0 8.395 6.805 15.2 15.196 15.2 8.394 0 15.199-6.805 15.199-15.2v-33.058c23.726-6.653 41.183-28.461 41.183-54.285 0-31.086-25.293-56.383-56.382-56.383zm0 82.371c-14.329 0-25.985-11.656-25.985-25.984 0-14.332 11.656-25.989 25.985-25.989 14.332 0 25.988 11.657 25.988 25.989-.004 14.324-11.66 25.984-25.988 25.984zm0 0" fill="#ffffff" opacity="1" data-original="#000000"></path></g></svg>