<svg xmlns="http://www.w3.org/2000/svg" version="1.1" xmlns:xlink="http://www.w3.org/1999/xlink" width="512" height="512" x="0" y="0" viewBox="0 0 512 512" style="enable-background:new 0 0 512 512" xml:space="preserve"><g><path d="M226.94 362.83a24 24 0 0 1-17-7L127.3 273.2a24 24 0 1 1 34-33.94l65.23 65.24 123.8-130.86a24 24 0 0 1 34.77 33.09L244.32 355.38a24 24 0 0 1-17.09 7.45z" fill="#b9a97d" opacity="1" data-original="#000000"></path><path d="M256 48.67c7.53 0 13.14 4.15 16.51 7.62 10.33 10.62 20.85 21.39 31.29 32a48 48 0 0 0 33.26 14.35c14.23.29 28.67.67 42.92 1.11 7 .22 14 3.51 19.83 9.25s9 12.74 9.25 19.69c.44 14.21.82 28.62 1.11 42.83a48 48 0 0 0 14.42 33.33c10.68 10.45 21.48 21 32.1 31.24 3.46 3.37 7.59 8.94 7.59 16.4s-4.11 13-7.57 16.34a8327.323 8327.323 0 0 0-32.1 31.25 48 48 0 0 0-14.43 33.32c-.29 14.21-.66 28.59-1.1 42.72-.25 6.91-3.63 14.11-9.28 19.75s-12.91 9-19.89 9.29c-14.21.45-28.61.82-42.82 1.11a48.05 48.05 0 0 0-33.28 14.37c-10.46 10.67-21 21.45-31.27 32-3.4 3.49-9 7.61-16.57 7.61s-13.15-4.14-16.53-7.62a8468.123 8468.123 0 0 0-31.28-32 48 48 0 0 0-33.25-14.35c-14.25-.29-28.69-.66-42.93-1.11-7-.22-14-3.51-19.85-9.26-4.07-4.09-8.94-10.81-9.22-19.68-.45-14.24-.82-28.66-1.11-42.87a48 48 0 0 0-14.45-33.35c-10.78-10.53-21.57-21-32.08-31.16-3.45-3.35-7.57-8.91-7.57-16.4s4.13-13 7.59-16.37a7688.81 7688.81 0 0 0 32.07-31.2 47.92 47.92 0 0 0 14.43-33.33c.29-14.14.67-28.51 1.11-42.72.25-6.93 3.62-14.13 9.27-19.77s12.91-9 19.9-9.28c14.2-.45 28.61-.82 42.82-1.11a48 48 0 0 0 33.27-14.36c10.48-10.68 21-21.48 31.33-32.09 3.37-3.47 9-7.61 16.49-7.61m0-48c-19.13 0-37.11 8-50.9 22.17q-15.47 15.92-31.15 31.9-21.72.43-43.43 1.12c-39.87 1.36-74.19 35.6-75.55 75.41q-.67 21.67-1.13 43.36-16 15.63-31.94 31.07C7.68 219.47-.29 237.44-.29 256.53s7.92 37 22.16 50.84q15.94 15.4 32 31 .43 21.69 1.12 43.39c.61 19.38 9 37.79 23.3 52.15s32.85 22.65 52.25 23.26q21.72.68 43.44 1.12 15.66 15.93 31.11 31.82c13.82 14.22 31.82 22.16 50.94 22.16 19.11 0 37.11-7.94 50.95-22.14q15.45-15.92 31.12-31.89 21.72-.45 43.43-1.12c39.87-1.36 74.19-35.63 75.55-75.41q.68-21.67 1.12-43.34 16-15.65 31.95-31.09c14.19-13.77 22.16-31.76 22.16-50.83s-8-37.05-22.18-50.84q-15.94-15.43-31.94-31.09-.45-21.67-1.13-43.36c-.6-19.35-9-37.81-23.31-52.15S400.86 56.4 381.49 55.8q-21.72-.69-43.44-1.13Q322.39 38.74 307 22.84C293.12 8.61 275.14.67 256 .67z" fill="#b9a97d" opacity="1" data-original="#000000"></path></g></svg>